<?xml version="1.0" standalone="no"?>
<!DOCTYPE svg PUBLIC "-//W3C//DTD SVG 20010904//EN"
 "http://www.w3.org/TR/2001/REC-SVG-20010904/DTD/svg10.dtd">
<svg version="1.0" xmlns="http://www.w3.org/2000/svg"
 width="225.000000pt" height="225.000000pt" viewBox="0 0 225.000000 225.000000"
 preserveAspectRatio="xMidYMid meet">
<metadata>
Created by potrace 1.11, written by Peter Selinger 2001-2013
</metadata>
<g transform="translate(0.000000,225.000000) scale(0.100000,-0.100000)"
fill="#000000" stroke="none">
<path d="M973 2095 c-157 -43 -248 -138 -282 -293 -14 -69 -13 -208 2 -299 11
-58 11 -77 0 -95 -29 -53 -10 -168 36 -221 15 -17 36 -56 45 -85 10 -29 33
-76 52 -103 31 -47 34 -57 34 -129 0 -74 -2 -80 -31 -110 -38 -38 -59 -48
-223 -116 -262 -108 -361 -214 -379 -406 l-6 -58 519 0 519 0 -34 73 c-78 172
-74 350 14 513 l39 72 -76 -43 -76 -43 -60 35 c-34 19 -76 41 -93 50 -33 17
-33 17 -33 94 0 57 -4 78 -14 82 -22 9 -78 131 -83 182 -5 38 -9 45 -28 45
-15 0 -26 9 -33 28 -25 60 -24 78 1 107 24 28 24 29 8 84 -11 39 -15 100 -16
201 0 140 1 147 29 203 50 102 159 158 311 160 82 1 133 -14 165 -48 13 -14
42 -30 64 -36 54 -15 98 -64 121 -135 32 -100 22 -294 -20 -396 -4 -11 0 -18
14 -23 29 -9 37 -51 20 -99 -10 -29 -20 -42 -36 -44 -15 -2 -25 -12 -29 -30
-18 -85 -73 -202 -94 -202 -6 0 -10 -29 -10 -64 l0 -64 59 61 c53 56 121 170
121 204 0 6 8 18 18 25 30 21 50 60 63 116 9 44 8 62 -5 102 -13 41 -14 58 -5
97 16 67 15 237 -1 303 -26 112 -85 192 -164 225 -22 9 -54 28 -72 42 -18 13
-54 31 -80 39 -60 18 -203 17 -271 -1z m21 -1371 c25 -14 46 -29 46 -34 0 -4
-21 -34 -47 -65 l-48 -58 -42 48 -42 48 37 43 c20 24 40 43 43 44 4 0 27 -12
53 -26z m-143 -184 c89 -111 98 -112 169 -22 44 55 47 57 68 43 11 -6 7 -23
-20 -77 -40 -80 -53 -113 -68 -171 l-11 -43 -335 0 -334 0 6 28 c16 65 62 126
133 175 42 29 292 144 317 146 6 1 39 -35 75 -79z"/>
<path d="M1652 916 c-12 -66 -16 -75 -38 -80 -19 -5 -38 4 -84 36 l-61 42 -66
-66 -67 -67 42 -60 c37 -52 41 -63 31 -84 -9 -20 -21 -25 -77 -33 l-67 -9 -3
-96 -3 -96 68 -9 c57 -8 69 -13 80 -33 10 -22 7 -31 -29 -84 l-40 -59 67 -68
68 -69 58 40 c45 30 65 38 84 33 26 -6 29 -14 43 -99 l7 -50 92 -3 c102 -3 94
-10 108 89 5 36 12 49 31 58 22 10 32 6 86 -30 l60 -41 64 63 c35 35 64 68 64
73 0 5 -18 33 -40 62 -36 47 -39 56 -29 78 9 20 23 27 68 36 31 6 62 13 69 15
9 4 12 29 10 97 l-3 93 -69 10 c-59 9 -70 13 -78 34 -7 20 -1 35 32 85 l40 61
-65 65 -64 64 -33 -24 c-18 -13 -44 -32 -59 -42 -19 -14 -31 -17 -50 -10 -21
8 -25 19 -34 78 l-10 69 -96 3 -95 3 -12 -75z m133 -63 c9 -67 12 -74 36 -80
12 -3 41 -16 64 -28 l43 -21 46 33 c25 18 50 33 55 33 24 0 19 -24 -14 -70
-34 -46 -35 -51 -21 -72 8 -13 20 -42 26 -65 12 -39 15 -41 59 -48 69 -9 81
-15 81 -34 0 -14 -13 -21 -61 -30 -40 -8 -62 -18 -66 -29 -3 -9 -15 -40 -28
-67 l-22 -51 38 -49 c33 -43 36 -52 24 -64 -12 -13 -21 -10 -65 21 l-51 36
-67 -28 -67 -29 -9 -61 c-8 -54 -11 -61 -30 -58 -17 2 -22 14 -31 61 l-10 58
-60 25 c-33 14 -62 26 -65 27 -3 1 -29 -13 -58 -32 -43 -27 -55 -31 -67 -21
-13 11 -10 19 20 62 l36 49 -25 67 -24 67 -61 13 c-47 11 -61 18 -61 32 0 14
14 20 65 30 55 10 65 15 65 33 0 11 9 40 21 63 l20 43 -30 45 c-17 25 -31 50
-31 56 0 24 32 20 76 -11 44 -30 50 -31 78 -19 17 6 48 17 68 23 31 9 37 16
43 46 14 84 17 91 35 91 15 0 20 -10 25 -47z"/>
<path d="M1665 647 c-113 -64 -113 -239 0 -305 56 -32 148 -28 197 10 134 102
61 318 -107 318 -33 0 -63 -8 -90 -23z m155 -92 c54 -54 12 -149 -65 -149 -73
0 -117 91 -69 145 40 45 90 46 134 4z"/>
</g>
</svg>
